<svg version="1.1" xmlns="http://www.w3.org/2000/svg" xmlns:xlink="http://www.w3.org/1999/xlink" x="0px" y="0px"
	 viewBox="0 0 1920 3034.2" style="enable-background:new 0 0 1920 3034.2;" xml:space="preserve">
<g id="s3_x5F_mano_x5F_right">
		<g>
			<path class="st31" d="M1061.1,2931.7l19-5.3l-10.7-38.2c-1.9-5.2-6.4-9.1-12.3-7.4c-5.2,1.5-8.6,7.5-6.7,12.7L1061.1,2931.7z"/>
			<path class="st31" d="M1080.4,2928.3l19-5.3l-10.7-38.2c-1.9-5.2-6.4-9.1-12.3-7.4c-5.2,1.5-8.6,7.5-6.7,12.7L1080.4,2928.3z"/>
			<path class="st31" d="M1100.8,2927.1l18.2-5.1l-10.4-37.3c-1.8-5-5.9-8-11.6-6.4c-5,1.4-8.4,6.5-6.6,11.5L1100.8,2927.1z"/>
			<g>
				<path class="st32" d="M1041.1,2938.4C1041.1,2938.4,1041.1,2938.4,1041.1,2938.4L1041.1,2938.4z"/>
				<path class="st31" d="M1057.6,2906.4c-3.5,1-4.5-2.6-4.5-2.6l-14.9-53.4c-1.9-5.2-6.4-9.1-12.3-7.4c-5.2,1.5-8.6,7.5-6.7,12.7
					l18.5,69.5l4.4,15.9c-3.5-3.2-7.4-7.4-9.6-9.8c-4.6-14.9-14.1-17.3-14.1-17.3c-11.3-4.2-20.3,3.8-19,7.7l11,10.4l4.8,11.7
					c0.4,1,0.9,2,1.5,3c0,0,6.5,7.9,16.3,20c7.9,5.2,28.5,18.7,30.4,20c2.5,1.8,3.5,2.4,4.4,5.4l8.4,24l48.7-13.2l-7.3-26.2
					c-1.3-4.5,2.2-7.9,3.2-12.5c0.6-2.7,2.2-6,2.5-9.4c0.9-10.3,1.2-13.4-10.8-55.5C1112.7,2899.4,1061.2,2905.4,1057.6,2906.4z"/>
			</g>
			<path class="st37" d="M1061.2,2902.6c-1-3.7-2.7-9.5-2.7-9.5c-1.9-5.2-2.1-10.3,1.6-11.3c1.4-0.4,2.7-0.5,3.9-0.3
				c-2-1.1-4.3-1.4-7-0.7c-5.2,1.5-8.6,7.5-6.7,12.7l4.7,16.8C1055.1,2910.3,1063,2909.1,1061.2,2902.6z"/>
			<path class="st37" d="M1080.2,2897.3c-1-3.7-2.1-7.5-2.1-7.5c-1.9-5.2-3.5-9.9,1.5-11.2c1.4-0.4,2.7-0.5,3.9-0.3
				c-2-1.1-4.3-1.4-7-0.7c-5.2,1.5-8.6,7.5-6.7,12.7l4.5,16.1C1074.3,2906.3,1082.4,2905.4,1080.2,2897.3z"/>
			<path class="st37" d="M1099.3,2895.8c-1-3.7-1.9-6.6-1.9-6.6c-1.9-5.2-1.6-8.6,2.7-9.8c1.3-0.4,2.6-0.4,3.8-0.3
				c-1.9-1.1-4.2-1.5-6.8-0.8c-5.1,1.4-8.1,6.5-7.1,10.2l4,14.5C1094.1,2903,1101.2,2902.6,1099.3,2895.8z"/>
			<path class="st32" d="M1057.1,2880.8c-3.5,1-6.2,4.1-7,7.5c1.3-1.8,3-3.6,5.1-4.2c6.6-1.8,8.3,1.4,9.7,6.5c0,0,2.9,10.5,3.9,14
				c1,3.5,5.6,1.5,5.6,1.5l-5-18C1067.5,2883,1063,2879.1,1057.1,2880.8z"/>
			<path class="st32" d="M1076.4,2877.5c-3.5,1-6.2,4-7,7.5c1.3-1.8,3-3.6,5.1-4.2c5.9-1.7,7.7,2.9,9.6,8.2c0,0,2.9,10.3,3.4,12.1
				c1.1,4,6.3,1.9,6.3,1.9l-5.1-18.1C1086.8,2879.7,1082.4,2875.9,1076.4,2877.5z"/>
			<path class="st32" d="M1108.9,2885.6c-1.9-5.2-6.3-9-12.1-7.4c-3.5,1-6.1,4-6.8,7.5c1.3-1.7,2.9-3.5,5-4.1
				c5.8-1.6,4.7,1.9,6.6,7.1l8.6,30.6c6.2,23.3,6,27,5.2,35.3c-0.3,3.3-1.8,6.6-2.5,9.4c-1,4.6-4.5,8-3.2,12.5l3.5,12.6l7.5-2.1
				l-2.9-10.4c-1.3-4.5,2.2-7.9,3.2-12.5c0.6-2.7,2.2-6,2.5-9.4c0.7-7.9,1-11.6-4.1-31.3l0.2,0L1108.9,2885.6z"/>
			<path class="st32" d="M1054.2,2905.6c-0.7-0.8-1-1.7-1-1.7l-14.9-53.4c-1.9-5.2-6.4-9.1-12.3-7.4c-3.5,1-6.1,4-6.9,7.4
				c1.4-1.9,3.1-3.1,5.2-3.7c5.9-1.7,8.2,2.8,10.1,8l13.6,48.7c0,0,2.3,8.2,7.5,6.7L1054.2,2905.6z"/>
			<path class="st37" d="M1024.7,2843.8c-5.6,2.5-7,7.6-5.4,11.9l18.5,69.5l4.4,15.9c-3.5-3.2-7.4-7.4-9.6-9.8
				c-4.6-14.9-14.1-17.3-14.1-17.3c-11.3-4.2-20.3,3.8-19,7.7l11,10.4l4.8,11.7c0.4,1,0.9,2,1.5,3c0,0,6.5,7.9,16.3,20
				c7.9,5.2,28.4,18.5,30.3,19.8c2.5,1.8,3.6,2.7,4.5,5.7l8.4,24l19.9-6.5l18-16l-4.5-16.1l-7.9,2.3c-14.8,4.1-30.7-9.2-33.6-19.7
				l-7-25.1c-0.5-1.8-1.4-3.4-2.6-4.8c-2.7-3.1-9.3-8.7-12.1-12c-1.2-1.4-2.1-3.1-2.6-4.9L1024.7,2843.8z"/>
			<path class="st37" d="M1037.3,2860.4l-10.9,3c-0.5,0.1-1-0.2-1.2-0.7l-4-14.5c-0.1-0.3,0.1-0.6,0.4-0.7l11.6-3.2
				c0.3-0.1,0.6,0.1,0.7,0.4l4,14.5C1038.1,2859.8,1037.8,2860.3,1037.3,2860.4z"/>
			<path class="st35" d="M1036,2858.3l-10.3,2.9c-0.5,0.1-1-0.2-1.2-0.7l-3.2-11.6c-0.1-0.3,0.1-0.6,0.4-0.7l11-3.1
				c0.3-0.1,0.6,0.1,0.7,0.4l3.2,11.6C1036.8,2857.7,1036.5,2858.2,1036,2858.3z"/>
			<path class="st31" d="M1044.6,2946.1c0,0-0.1,7.8-8.5,7.9c-5.2-1.8-14.6-13.8-14.6-13.8l-3.2-7.9c-1.2-4.5-3.6-8.5-6.9-11.7
				l-4.6-4.5c0,0,13.6-3.8,19.4,6.8C1031.9,2933.3,1044.6,2946.1,1044.6,2946.1z"/>
			<path class="st32" d="M1077.1,3013.6l-7.9-22.6c-0.8-3-2.5-4.4-5-6.2c-1.9-1.3-22.4-15.4-30.3-20.6c-9.8-12-16.3-20-16.3-20
				c-0.6-0.9-1.1-1.9-1.5-3l-4.8-11.7l-11-10.4c-0.1-0.2-0.1-0.4-0.1-0.5c-0.7,1.1-0.9,2.2-0.6,3.1l11,10.4l4.8,11.7
				c0.4,1,0.9,2,1.5,3c0,0,6.5,7.9,16.3,20c7.9,5.2,28.4,19,30.3,20.3c2.5,1.8,3.9,3.6,4.5,5.2l8.4,24l19.9-6.5l-4.5-0.3
				L1077.1,3013.6z"/>
			<path class="st60" d="M1011.1,2933.3l1.1-1.1l3.9,9.5c0.4,1,0.9,2,1.5,3c0,0,6.5,7.9,16.3,20c7.9,5.2,28.4,19.3,30.3,20.6
				c2.5,1.8,3.4,1.9,4.7,4.8l3.2,9.1l26.1-9.6c0,0-13.8,1.5-31.5-6.5c-10.9-4.9-25.7-16.3-32.1-20.8c-9.8-12-16.3-20-16.3-20
				c-0.6-0.9-1.1-1.9-1.5-3l-3.5-8.4c0.7-1.6,0.1-4-0.7-4.7l-5.5-5.2c-1.5-1.4-3.8-2.2-5.8-0.8c-0.7,0.4-1.6,1.2-2.1,1.7
				c0,0,8,7.5,11.4,10.7C1010.9,2932.7,1010.9,2933.1,1011.1,2933.3z"/>
			<path class="st35" d="M1012,2930.7l-1.4,1.7c-2.7-2.7-11.4-10.6-11.4-10.7c0.5-0.5,1-1,1.6-1.4c1.7-1.1,4.1-0.7,5.6,0.7l5.3,5
				C1012.5,2926.8,1013.5,2929.2,1012,2930.7z"/>
			<path class="st38" d="M1050.4,2893.5l4.7,16.9c0,0,2.6-0.6,2.2-2l-4.1-14.8c-1.4-5.5,0.1-10.4,5.3-12.3c1.5-0.5,3-0.5,4.3-0.2
				c-0.4-0.2-0.9-0.3-1.3-0.4c-0.5-0.1-0.9-0.1-1.3-0.2c0,0-0.1,0-0.1,0c-0.4,0-0.9,0-1.3,0.1c-0.1,0-0.2,0-0.3,0
				c-0.5,0.1-0.9,0.1-1.4,0.3c-2.3,0.6-4.2,2.1-5.5,4.1c-0.4,0.6-0.7,1.1-0.9,1.8c-0.1,0.3-0.2,0.6-0.3,0.9
				C1049.7,2889.5,1049.7,2891.6,1050.4,2893.5z"/>
			<path class="st38" d="M1076.4,2877.4c-5.2,1.5-8.6,7.5-6.7,12.7l4.5,16.2c0,0,3-0.4,2.6-1.9c-0.4-1.5-4-14.4-4-14.4
				c-1.5-5.4-0.2-10.8,5-12.2c1.5-0.4,3-0.5,4.3-0.2C1080.5,2877,1078.5,2876.8,1076.4,2877.4z"/>
			<path class="st38" d="M1101.3,2878.1c-0.7-0.1-1.4-0.2-2.1-0.1c-0.3,0-0.6,0.1-0.9,0.1c-0.4,0.1-0.8,0.2-1.2,0.3
				c-3.3,1-5.8,3.5-6.7,6.2c-0.4,1.3-0.5,2.7-0.2,4.1l4,14.3c0,0,1.2-0.1,3-0.9l-3.5-12.6c-1.4-5.3-0.2-9.6,4.8-11
				C1099.4,2878.2,1100.3,2878.1,1101.3,2878.1z"/>
			<path class="st38" d="M1021.5,2851.4c0,0-2.1-4.9,4.5-8.4c0,0,0,0-0.1,0c-5.2,1.5-8.6,7.5-6.7,12.7l18.5,69.5l4.4,15.9
				c-0.8-0.8-1.7-1.6-2.6-2.4l3.7,9.1c0,0,5.1,0,3.1-7C1044.4,2933.7,1021.5,2851.4,1021.5,2851.4z"/>
			<g>
				<path class="st37" d="M1019.3,2855.7l22.9,85.5c-0.1-0.1-0.1-0.1-0.2-0.2l1.7,6.7c1.5-0.5,1-2.7,0.6-4.1l-24.4-90.4
					c-0.5-2-0.7-2.9-0.5-4.3C1018.6,2851,1018.4,2853.4,1019.3,2855.7z"/>
				<path class="st32" d="M1032.5,2931.4c-4.6-14.9-14.1-17.3-14.1-17.3c-10.7-4-19.3,2.9-19.1,7c3-3.3,9.6-6.1,17.3-3.2
					c0,0,9.4,2.4,14.1,17.3c2.2,2.4,9,9.4,12.6,12.7c0.2,0,0.3-0.1,0.4-0.1l-1.7-6.7C1039.4,2938.4,1034.1,2933.1,1032.5,2931.4z"/>
			</g>
			<g>
				<g>
					<polygon class="st1" points="1139.5,3034.2 1125.1,2981.4 1066.9,2997.3 1077,3034.2 				"/>
				</g>
				<g>
					<polygon class="st11" points="1109.5,3034.2 1098,2991.9 1068.1,3000.4 1077.3,3034.2 				"/>
				</g>
				<g>
					<polygon class="st42" points="1142.1,3034.2 1131.6,2995.7 1067.6,3013.1 1073.4,3034.2 				"/>
				</g>
				<polygon class="st0" points="1114.7,3034.2 1107,3005.9 1068.5,3016.4 1073.4,3034.2 			"/>
				<g>
					
						<ellipse transform="matrix(0.719 -0.6951 0.6951 0.719 -1774.792 1628.4001)" class="st1" cx="1126.2" cy="3008.8" rx="4.2" ry="4.2"/>
					<g>
						
							<ellipse transform="matrix(0.7189 -0.6951 0.6951 0.7189 -1773.828 1628.1394)" class="st42" cx="1126.1" cy="3007.3" rx="0.8" ry="0.8"/>
						
							<ellipse transform="matrix(0.719 -0.695 0.695 0.719 -1774.9855 1626.9363)" class="st42" cx="1124.6" cy="3008.7" rx="0.8" ry="0.8"/>
						
							<ellipse transform="matrix(0.7189 -0.6951 0.6951 0.7189 -1774.5146 1629.6882)" class="st42" cx="1127.8" cy="3008.9" rx="0.8" ry="0.8"/>
						
							<ellipse transform="matrix(0.719 -0.695 0.695 0.719 -1775.672 1628.4846)" class="st42" cx="1126.3" cy="3010.4" rx="0.8" ry="0.8"/>
					</g>
				</g>
				<polygon class="st43" points="1129.2,2999.8 1138.6,3034.2 1142.1,3034.2 1131.6,2995.7 1067.6,3013.1 1068.5,3016.4 			"/>
			</g>
		</g>
	</g>    
</svg>
